# xmcd CD database file generated by OrangeCD 6.4
#
# Track frame offsets:
#	150
#	37502
#	99143
#	205456
#	218262
#	238998
#
# Disc length: 4367 seconds
#
# Revision: 0
# Processed by: cddbd v1.5.2PL0 Copyright (c) Steve Scherf et al.
# Submitted via: OrangeCD 6.4
#
DISCID=41110d06
DTITLE=Jimi Hendrix - The Late Studio Sessions 1969-1970
DYEAR=2010
DGENRE=Blues Rock
TTITLE0=Once I Had A Woman
TTITLE1=Blue Suede Shoes
TTITLE2=Freedom/Highway Of Desire/Seven Dollars In My Pocket Jam
TTITLE3=Lover Man
TTITLE4=Valleys Of Neptune
TTITLE5=Jam Thing
EXTD=
EXTT0=
EXTT1=
EXTT2=
EXTT3=
EXTT4=
EXTT5=
PLAYORDER=
